<svg xmlns="http://www.w3.org/2000/svg" xmlns:xlink="http://www.w3.org/1999/xlink" width="2000" zoomAndPan="magnify" viewBox="0 0 1500 1499.999933" height="2000" preserveAspectRatio="xMidYMid meet" version="1.0"><defs><g/><clipPath id="9dd077c0ea"><rect x="0" width="1318" y="0" height="1500"/></clipPath></defs><g transform="matrix(1, 0, 0, 1, 82, 0.000000000000112861)"><g clip-path="url(#9dd077c0ea)"><g fill="#ffffff" fill-opacity="1"><g transform="translate(93.766684, 1205.612372)"><g><path d="M 177.65625 60.65625 C 121.800781 60.65625 75.335938 48.859375 38.265625 25.265625 C 1.203125 1.679688 -26.472656 -28.882812 -44.765625 -66.4375 C -63.066406 -103.988281 -72.21875 -142.503906 -72.21875 -181.984375 C -72.21875 -221.460938 -64.269531 -259.253906 -48.375 -295.359375 C -32.488281 -331.460938 -10.101562 -360.828125 18.78125 -383.453125 C 47.664062 -406.085938 81.363281 -417.40625 119.875 -417.40625 C 134.320312 -417.40625 141.546875 -411.625 141.546875 -400.0625 C 141.546875 -368.289062 156.226562 -342.535156 185.59375 -322.796875 C 214.957031 -303.054688 248.414062 -293.1875 285.96875 -293.1875 C 318.707031 -293.1875 352.40625 -301.613281 387.0625 -318.46875 C 421.726562 -335.320312 455.1875 -362.039062 487.4375 -398.625 C 519.695312 -435.21875 546.898438 -482.398438 569.046875 -540.171875 C 581.566406 -572.898438 594.328125 -606.835938 607.328125 -641.984375 C 620.328125 -677.128906 633.082031 -710.109375 645.59375 -740.921875 C 655.226562 -765.953125 667.988281 -783.765625 683.875 -794.359375 C 699.757812 -804.953125 718.296875 -810.25 739.484375 -810.25 C 770.296875 -810.25 790.515625 -803.265625 800.140625 -789.296875 C 809.765625 -775.335938 810.726562 -756.328125 803.03125 -732.265625 C 776.070312 -655.234375 785.703125 -616.71875 831.921875 -616.71875 C 862.722656 -616.71875 891.363281 -628.75 917.84375 -652.8125 C 944.320312 -676.882812 957.5625 -711.070312 957.5625 -755.375 C 957.5625 -785.21875 947.929688 -809.285156 928.671875 -827.578125 C 909.421875 -845.878906 884.148438 -859.359375 852.859375 -868.015625 C 821.566406 -876.679688 786.660156 -881.015625 748.140625 -881.015625 C 692.296875 -881.015625 640.78125 -874.035156 593.59375 -860.078125 C 546.414062 -846.117188 508.382812 -824.695312 479.5 -795.8125 C 450.613281 -766.925781 436.171875 -729.375 436.171875 -683.15625 C 436.171875 -661.96875 441.46875 -644.394531 452.0625 -630.4375 C 462.65625 -616.476562 475.65625 -609.5 491.0625 -609.5 C 497.800781 -594.09375 498.28125 -575.554688 492.5 -553.890625 C 486.726562 -532.222656 475.414062 -511.519531 458.5625 -491.78125 C 441.707031 -472.039062 420.039062 -455.429688 393.5625 -441.953125 C 367.09375 -428.472656 336.523438 -421.734375 301.859375 -421.734375 C 262.378906 -421.734375 229.160156 -430.640625 202.203125 -448.453125 C 175.242188 -466.265625 155.023438 -489.375 141.546875 -517.78125 C 128.066406 -546.1875 121.328125 -576.757812 121.328125 -609.5 C 121.328125 -672.082031 136.007812 -731.535156 165.375 -787.859375 C 194.738281 -844.191406 236.863281 -893.78125 291.75 -936.625 C 346.632812 -979.46875 413.070312 -1013.164062 491.0625 -1037.71875 C 569.050781 -1062.28125 657.15625 -1074.5625 755.375 -1074.5625 C 860.320312 -1074.5625 946.734375 -1061.5625 1014.609375 -1035.5625 C 1082.492188 -1009.5625 1133.046875 -975.132812 1166.265625 -932.28125 C 1199.484375 -889.4375 1216.09375 -842.5 1216.09375 -791.46875 C 1216.09375 -753.914062 1208.148438 -718.53125 1192.265625 -685.3125 C 1176.378906 -652.09375 1154.472656 -623.929688 1126.546875 -600.828125 C 1098.628906 -577.722656 1066.375 -562.796875 1029.78125 -556.046875 C 1018.226562 -553.160156 1012.207031 -548.347656 1011.71875 -541.609375 C 1011.238281 -534.867188 1012.925781 -529.09375 1016.78125 -524.28125 C 1036.039062 -505.988281 1052.410156 -482.640625 1065.890625 -454.234375 C 1079.367188 -425.828125 1086.109375 -389 1086.109375 -343.75 C 1086.109375 -271.53125 1070.460938 -208.457031 1039.171875 -154.53125 C 1007.878906 -100.613281 967.195312 -58.972656 917.125 -29.609375 C 867.0625 -0.242188 814.101562 14.4375 758.25 14.4375 C 695.664062 14.4375 645.597656 -3.613281 608.046875 -39.71875 C 570.492188 -75.820312 549.789062 -123.722656 545.9375 -183.421875 C 492.988281 -104.472656 435.457031 -44.054688 373.34375 -2.171875 C 311.238281 39.710938 246.007812 60.65625 177.65625 60.65625 Z M 771.25 -298.96875 C 805.914062 -298.96875 832.875 -313.410156 852.125 -342.296875 C 871.382812 -371.179688 881.015625 -402.472656 881.015625 -436.171875 C 881.015625 -456.398438 873.550781 -474.457031 858.625 -490.34375 C 843.707031 -506.226562 819.878906 -513.6875 787.140625 -512.71875 C 755.367188 -512.71875 731.054688 -500.921875 714.203125 -477.328125 C 697.347656 -453.742188 688.921875 -427.988281 688.921875 -400.0625 C 688.921875 -374.070312 695.421875 -350.722656 708.421875 -330.015625 C 721.421875 -309.316406 742.363281 -298.96875 771.25 -298.96875 Z M 771.25 -298.96875 "/></g></g></g></g></g></svg>